<svg width="58" height="58" viewBox="0 0 58 58" fill="none" xmlns="http://www.w3.org/2000/svg">
<path d="M31.4173 53.1666H12.084C7.25065 53.1666 4.83398 50.7499 4.83398 45.9166V26.5833C4.83398 21.7499 7.25065 19.3333 12.084 19.3333H24.1673V45.9166C24.1673 50.7499 26.584 53.1666 31.4173 53.1666Z" stroke="#FF9F52" stroke-width="3.5" stroke-miterlimit="10" stroke-linecap="round" stroke-linejoin="round"/>
<path d="M24.4331 9.66675C24.2398 10.3917 24.1673 11.1892 24.1673 12.0834V19.3334H12.084V14.5001C12.084 11.8417 14.259 9.66675 16.9173 9.66675H24.4331Z" stroke="#FF9F52" stroke-width="3.5" stroke-miterlimit="10" stroke-linecap="round" stroke-linejoin="round"/>
<path d="M33.834 19.3333V31.4166" stroke="#FF9F52" stroke-width="3.5" stroke-miterlimit="10" stroke-linecap="round" stroke-linejoin="round"/>
<path d="M43.5 19.3333V31.4166" stroke="#FF9F52" stroke-width="3.5" stroke-miterlimit="10" stroke-linecap="round" stroke-linejoin="round"/>
<path d="M41.084 41.0833H36.2507C34.9215 41.0833 33.834 42.1708 33.834 43.4999V53.1666H43.5007V43.4999C43.5007 42.1708 42.4132 41.0833 41.084 41.0833Z" stroke="#FF9F52" stroke-width="3.5" stroke-miterlimit="10" stroke-linecap="round" stroke-linejoin="round"/>
<path d="M14.5 31.4167V41.0834" stroke="#FF9F52" stroke-width="3.5" stroke-miterlimit="10" stroke-linecap="round" stroke-linejoin="round"/>
<path d="M24.166 45.9166V12.0833C24.166 7.24992 26.5827 4.83325 31.416 4.83325H45.916C50.7493 4.83325 53.166 7.24992 53.166 12.0833V45.9166C53.166 50.7499 50.7493 53.1666 45.916 53.1666H31.416C26.5827 53.1666 24.166 50.7499 24.166 45.9166Z" stroke="#FF9F52" stroke-width="3.5" stroke-miterlimit="10" stroke-linecap="round" stroke-linejoin="round"/>
</svg>
